<?xml version="1.0" encoding="UTF-8"?>
<!DOCTYPE svg PUBLIC "-//W3C//DTD SVG 1.1//EN" "http://www.w3.org/Graphics/SVG/1.1/DTD/svg11.dtd">
<svg version="1.1" xmlns="http://www.w3.org/2000/svg" xmlns:xlink="http://www.w3.org/1999/xlink" x="0" y="0" width="512" height="512" viewBox="0, 0, 512, 512">
  <g id="Layer_1">
    <path d="M256.001,0 C290.558,-0 324.085,6.769 355.649,20.12 C386.133,33.013 413.51,51.471 437.02,74.981 C460.528,98.489 478.986,125.867 491.88,156.351 C505.23,187.915 511.999,221.442 511.999,255.999 C511.999,290.557 505.23,324.084 491.88,355.647 C478.986,386.132 460.528,413.509 437.02,437.019 C413.51,460.528 386.133,478.987 355.649,491.88 C324.085,505.231 290.558,512 256.001,512 C221.442,512 187.916,505.231 156.352,491.88 C125.867,478.987 98.49,460.528 74.981,437.019 C51.472,413.509 33.014,386.132 20.12,355.647 C6.77,324.084 0.001,290.557 0.001,255.999 C0.001,221.442 6.77,187.915 20.12,156.351 C33.014,125.867 51.472,98.489 74.981,74.98 C98.49,51.471 125.867,33.013 156.352,20.12 C187.916,6.769 221.442,-0 256.001,0 z M257.589,144.056 L242.607,327.564 C242.475,329.177 241.452,330.581 239.957,331.2 C238.463,331.819 236.747,331.55 235.513,330.503 L140.852,250.133 L238.291,364.895 C239.032,365.768 239.395,366.899 239.302,368.039 L233.488,439.263 C232.402,460.159 229.975,481.208 223.809,501.266 C234.475,502.742 245.241,503.301 256.001,503.37 C267.816,503.299 279.669,502.632 291.359,500.841 C290.127,496.791 289.985,496.484 288.84,491.872 C284.769,475.477 282.331,456.323 281.69,439.264 L275.597,364.624 C275.504,363.483 275.867,362.353 276.608,361.48 L371.147,250.133 L279.46,327.979 C278.225,329.026 276.51,329.295 275.015,328.676 C273.52,328.056 272.497,326.653 272.365,325.04 L257.589,144.056 z M256.001,8.631 C119.601,8.631 8.631,119.6 8.631,255.999 C8.969,377.743 95.969,478.65 215.172,499.999 C216.576,495.393 216.795,494.891 217.983,490.054 C221.893,474.138 224.211,455.455 224.866,438.863 C224.869,438.796 224.872,438.727 224.878,438.66 L230.555,369.119 L157.552,283.136 C156.909,283.581 156.122,283.709 155.361,283.747 L121.827,283.747 C120.781,286.477 119.277,288.993 117.586,291.366 C113.692,296.606 106.5,302.892 94.346,303.076 C94.163,303.079 93.978,303.081 93.794,303.081 C72.635,303.081 44.767,284.534 43.592,283.745 C42.417,282.956 41.704,281.642 41.682,280.227 C41.66,278.813 42.334,277.478 43.484,276.654 C44.655,275.815 72.399,256.112 93.627,255.788 C93.806,255.785 93.988,255.784 94.165,255.784 C103.609,255.784 111.614,259.633 117.316,266.917 C119.313,269.396 120.784,272.214 122.053,275.117 L150.743,275.117 L118.912,237.627 C115.163,238.91 111.257,239.528 107.304,239.585 C98.735,239.585 91.074,236.368 84.534,230.024 C67.183,213.193 59.53,175.089 59.213,173.475 C58.94,172.087 59.365,170.653 60.349,169.638 C61.501,168.559 62.127,168.449 63.627,168.331 L64.15,168.385 C65.773,168.653 104.092,175.146 121.443,191.977 C131.271,201.511 132.32,212.213 131.469,219.513 C131.088,222.713 130.306,225.863 129.138,228.866 L164.431,258.83 L164.431,232.514 C161.701,231.468 159.185,229.964 156.811,228.273 C151.571,224.38 145.286,217.188 145.101,205.033 C144.778,183.805 163.63,155.475 164.432,154.28 C165.221,153.105 166.535,152.392 167.95,152.37 C167.971,152.37 167.993,152.37 168.016,152.37 C169.405,152.37 170.712,153.04 171.523,154.172 C172.362,155.342 192.066,183.086 192.389,204.314 C192.574,216.469 186.51,223.849 181.391,227.9 C178.879,229.946 176.013,231.446 173.061,232.738 L173.061,266.157 L210.398,297.858 L209.62,271.089 C207.128,270.11 204.839,268.71 202.682,267.138 C197.953,263.554 192.304,256.962 192.242,245.919 C192.136,226.818 209.292,201.566 210.022,200.5 C210.822,199.334 212.143,198.633 213.558,198.625 L213.582,198.625 C214.987,198.625 216.306,199.31 217.114,200.461 C217.856,201.518 235.292,226.578 235.398,245.68 C235.46,256.724 229.885,263.378 225.196,267.015 C223.079,268.68 220.72,269.994 218.254,271.062 L219.25,305.374 L234.689,318.482 L245.848,181.81 L223.185,159.147 C219.289,160.833 215.065,161.673 210.829,161.734 C203.457,161.734 196.871,158.97 191.252,153.52 C176.549,139.258 170.09,107.102 169.822,105.74 C169.549,104.352 169.974,102.918 170.959,101.903 C172.111,100.823 172.736,100.714 174.236,100.596 L174.76,100.65 C176.129,100.876 208.467,106.356 223.17,120.619 C231.615,128.81 232.515,138.011 231.783,144.288 C231.465,147.367 230.555,150.322 229.436,153.193 L246.769,170.526 L251.362,114.268 C248.835,113.185 246.504,111.719 244.272,110.128 C238.373,105.745 231.297,97.647 231.089,83.955 C230.722,59.786 252.254,27.431 253.17,26.065 C253.959,24.89 255.273,24.177 256.688,24.156 C258.103,24.139 259.437,24.807 260.261,25.957 C261.219,27.294 283.724,58.981 284.09,83.151 C284.298,96.842 277.472,105.151 271.708,109.711 C269.278,111.59 266.655,113.265 263.836,114.504 L268.484,171.443 L286.886,153.042 C285.757,150.49 285.079,147.775 284.619,145.032 C283.697,138.78 284.317,129.556 292.509,121.111 C306.771,106.408 338.927,99.948 340.289,99.68 L340.811,99.61 C342.095,99.542 343.168,99.994 344.126,100.817 C345.142,101.802 345.61,103.222 345.379,104.618 C345.153,105.987 339.674,138.325 325.412,153.027 C319.815,158.797 312.832,161.846 305.217,161.846 C300.961,161.842 296.769,160.897 292.841,159.292 L269.406,182.726 L280.283,315.957 L296.143,302.492 L296.952,271.091 C294.429,270.076 292.116,268.635 289.942,267.015 C285.254,263.378 279.678,256.724 279.74,245.68 C279.846,226.578 297.282,201.518 298.024,200.461 C298.832,199.31 300.151,198.625 301.556,198.625 L301.58,198.625 C302.995,198.633 304.316,199.333 305.116,200.5 C305.846,201.566 323.003,226.818 322.897,245.919 C322.834,256.962 317.185,263.554 312.457,267.138 C310.352,268.749 308.025,270.036 305.586,271.061 L304.969,294.998 L338.939,266.156 L338.939,232.738 C335.933,231.544 333.177,229.85 330.608,227.9 C325.489,223.849 319.425,216.469 319.61,204.314 C319.934,183.086 339.637,155.343 340.476,154.172 C341.287,153.04 342.594,152.37 343.983,152.37 C344.006,152.37 344.027,152.37 344.049,152.37 C345.464,152.392 346.778,153.105 347.566,154.28 C348.369,155.475 367.22,183.805 366.899,205.033 C366.713,217.188 360.428,224.38 355.189,228.273 C352.847,230.015 350.273,231.423 347.569,232.514 L347.569,258.829 L382.861,228.865 C381.651,225.87 380.967,222.704 380.53,219.513 C379.68,212.213 380.729,201.511 390.557,191.977 C407.907,175.146 446.226,168.653 447.849,168.385 L448.372,168.331 C449.658,168.302 450.717,168.787 451.65,169.638 C452.635,170.653 453.06,172.087 452.786,173.475 C452.469,175.089 444.815,213.193 427.464,230.024 C420.925,236.368 413.264,239.585 404.696,239.585 L404.695,239.585 C401.736,239.57 398.775,239.202 395.909,238.458 C394.96,238.212 394.028,237.904 393.087,237.626 L361.256,275.117 L389.946,275.117 C391.121,272.163 392.779,269.45 394.683,266.916 C400.385,259.633 408.39,255.784 417.834,255.784 C418.011,255.784 418.193,255.785 418.372,255.788 C439.601,256.112 467.345,275.815 468.516,276.654 C469.666,277.478 470.339,278.813 470.318,280.227 C470.296,281.642 469.583,282.956 468.409,283.744 C467.233,284.534 439.366,303.081 418.208,303.081 L418.205,303.081 C418.021,303.081 417.836,303.079 417.653,303.076 C405.498,302.892 398.306,296.606 394.413,291.366 C392.67,289.025 391.263,286.451 390.172,283.747 L353.928,283.747 L284.344,365.704 L290.3,438.66 C290.306,438.727 290.309,438.795 290.312,438.862 C291.223,455.803 293.075,472.797 297.104,489.304 C298.291,494.164 298.53,494.734 299.951,499.44 C417.866,478.449 502.611,375.129 503.369,255.999 C503.369,119.6 392.4,8.631 256.001,8.631 z M94.165,264.414 C94.031,264.414 93.893,264.415 93.758,264.418 C80.351,264.622 62.785,274.518 54.004,280.04 C62.852,285.237 80.427,294.45 93.794,294.45 C93.934,294.45 94.075,294.449 94.215,294.447 C101.148,294.342 106.68,291.574 110.658,286.22 C111.716,284.713 111.179,285.532 112.245,283.747 L98.34,283.747 C95.957,283.747 94.025,281.816 94.025,279.432 C94.025,277.049 95.957,275.117 98.34,275.117 L112.481,275.117 C108.564,268.134 102.097,264.615 94.165,264.414 z M418.24,264.418 C410.387,264.229 403.386,268.341 399.522,275.117 L413.66,275.117 C416.043,275.117 417.975,277.049 417.975,279.432 C417.975,281.816 416.043,283.747 413.66,283.747 L399.705,283.747 C403.732,290.688 409.78,294.122 417.784,294.447 C417.924,294.449 418.065,294.45 418.206,294.45 C431.573,294.45 449.147,285.237 457.996,280.04 C449.215,274.518 431.649,264.622 418.24,264.418 z M301.512,210.982 C296.619,219.02 288.434,234.18 288.37,245.728 C288.312,252.586 291.55,257.915 297.197,261.565 L297.486,250.339 C297.547,247.956 299.525,246.068 301.911,246.136 C304.294,246.197 306.175,248.179 306.114,250.561 L305.839,261.246 C311.421,257.775 314.068,252.349 314.266,245.87 C314.331,234.323 306.315,219.074 301.512,210.982 z M213.628,210.979 C208.826,219.07 200.808,234.321 200.873,245.87 C200.906,251.912 203.269,256.754 207.895,260.261 C208.957,261.023 208.471,260.706 209.334,261.237 L209.024,250.575 C208.955,248.193 210.831,246.205 213.213,246.137 C213.255,246.135 213.298,246.135 213.34,246.135 C215.665,246.135 217.583,247.985 217.651,250.325 L217.977,261.542 C223.828,257.898 226.635,252.604 226.768,245.729 C226.704,234.157 218.521,219.01 213.628,210.979 z M69.168,178.192 C72.03,189.449 79.056,212.686 90.543,223.829 C95.418,228.558 101.057,230.955 107.304,230.955 C109.127,230.928 110.97,230.788 112.749,230.368 L100.065,215.428 C98.61,213.715 98.714,211.173 100.303,209.584 C101.892,207.995 104.434,207.891 106.147,209.346 L122.068,222.863 C124.722,213.358 122.307,205.191 115.433,198.172 C103.945,187.028 80.507,180.711 69.168,178.192 z M442.834,178.192 C431.497,180.71 408.055,187.027 396.566,198.172 C389.779,204.763 387.352,213.787 389.933,222.861 L405.851,209.346 C407.565,207.891 410.107,207.995 411.696,209.584 C413.285,211.173 413.388,213.715 411.934,215.428 L399.249,230.369 C401.035,230.787 402.868,230.914 404.695,230.955 C410.942,230.955 416.581,228.558 421.455,223.829 C432.961,212.669 439.978,189.444 442.834,178.192 z M343.864,164.69 C338.342,173.469 328.444,191.037 328.239,204.446 C328.049,212.301 332.16,219.302 338.939,223.166 L338.939,209.027 C338.939,206.643 340.871,204.711 343.254,204.711 C345.637,204.711 347.569,206.643 347.569,209.027 L347.569,222.979 C354.51,218.951 357.944,212.908 358.269,204.902 C358.473,191.471 349.117,173.626 343.864,164.69 z M168.138,164.689 C162.886,173.632 153.526,191.493 153.73,204.902 C153.836,211.835 156.604,217.367 161.958,221.345 C163.464,222.403 162.645,221.866 164.431,222.933 L164.431,209.027 C164.431,206.643 166.362,204.711 168.746,204.711 C171.129,204.711 173.061,206.643 173.061,209.027 L173.061,223.165 C180.191,219.15 183.678,212.551 183.76,204.446 C183.555,191.014 173.661,173.462 168.138,164.689 z M335.538,109.67 C325.825,112.213 307.584,117.965 298.703,127.12 C293.517,132.447 291.928,139.154 293.655,146.273 L302.947,136.981 C304.633,135.296 307.365,135.296 309.05,136.981 C310.735,138.666 310.735,141.398 309.05,143.083 L299.646,152.487 C301.461,152.988 303.34,153.179 305.217,153.216 C310.518,153.216 315.227,151.131 319.217,147.018 C328.097,137.864 333.292,119.457 335.538,109.67 z M179.811,110.488 C182.353,120.2 188.105,138.445 197.261,147.326 C201.214,151.16 205.779,153.104 210.829,153.104 C212.719,153.141 214.57,152.78 216.401,152.363 L207.122,143.083 C205.437,141.398 205.437,138.666 207.122,136.981 C208.808,135.296 211.54,135.296 213.225,136.981 L222.647,146.404 C224.637,138.875 222.567,132.329 217.161,126.814 C207.989,117.916 189.593,112.728 179.811,110.488 z M256.876,36.437 C250.94,46.42 239.475,67.82 239.719,83.824 C239.843,91.991 243.106,98.51 249.418,103.2 C251.157,104.418 250.257,103.829 252.122,104.962 L253.288,90.675 C253.471,88.436 255.342,86.711 257.589,86.711 C259.836,86.711 261.707,88.436 261.89,90.675 L263.077,105.215 C271.184,100.413 275.483,92.708 275.461,83.282 C275.218,67.254 263.113,46.228 256.876,36.437 z" fill="#ffffff"/>
  </g>
</svg>
