<?xml version="1.0" encoding="UTF-8"?>
<!DOCTYPE svg PUBLIC "-//W3C//DTD SVG 1.1//EN" "http://www.w3.org/Graphics/SVG/1.1/DTD/svg11.dtd">
<svg version="1.1" xmlns="http://www.w3.org/2000/svg" xmlns:xlink="http://www.w3.org/1999/xlink" x="0" y="0" width="512" height="512" viewBox="0, 0, 512, 512">
  <g id="Layer_1">
    <path d="M256,-0 C290.558,-0 324.084,6.769 355.648,20.12 C386.132,33.013 413.509,51.471 437.019,74.981 C460.528,98.489 478.986,125.867 491.879,156.351 C505.23,187.915 511.999,221.442 511.999,255.999 C511.999,290.557 505.23,324.083 491.879,355.647 C478.986,386.132 460.528,413.509 437.019,437.019 C413.509,460.528 386.132,478.987 355.648,491.88 C324.084,505.231 290.558,512 256,512 C221.442,512 187.915,505.231 156.352,491.88 C125.867,478.987 98.49,460.528 74.98,437.019 C51.471,413.509 33.013,386.132 20.119,355.647 C6.769,324.084 -0,290.557 -0,255.999 C-0,221.442 6.769,187.915 20.119,156.351 C33.013,125.867 51.471,98.489 74.98,74.98 C98.49,51.471 125.867,33.013 156.352,20.12 C187.915,6.769 221.442,-0 256,-0 z M255.999,222.978 C246.535,230.764 236.122,237.3 225.286,242.987 C226.847,252.235 227.829,262.524 227.745,273.647 C227.686,281.443 227.069,289.375 226.258,296.553 C232.575,304.236 238.195,314.365 241.078,327.545 C243.679,342.358 242.959,357.619 242.199,372.567 C241.395,388.372 240.005,404.142 238.456,419.889 C235.762,447.272 232.337,474.597 228.468,501.838 C237.606,502.913 246.804,503.311 256,503.37 C263.389,503.375 270.776,503.037 278.136,502.388 C279.937,502.229 281.733,502.022 283.531,501.838 C277.987,461.197 272.703,420.453 270.191,379.493 C269.541,368.893 269.094,358.274 269.21,347.652 C269.284,340.947 269.552,334.129 270.921,327.545 C273.317,316.154 278.481,305.628 285.732,296.566 L285.738,296.527 C284.84,288.931 284.378,281.293 284.254,273.647 C284.17,262.524 285.152,252.235 286.713,242.987 C275.879,237.335 265.43,230.777 255.999,222.978 z M256,8.631 C119.6,8.631 8.63,119.6 8.63,255.999 C8.533,378.415 99.405,482.265 219.905,500.728 C225.315,460.892 230.477,420.964 233.088,380.83 C233.775,370.262 234.272,359.673 234.215,349.08 C234.18,342.521 233.982,335.832 232.647,329.389 C231.003,321.874 228.311,315.054 224.591,308.961 C223.292,317.344 222.063,323.066 221.956,323.558 C221.843,324.078 221.638,324.561 221.359,324.991 C216.987,338.809 206.579,356.4 181.863,364.607 C163.209,370.801 137.315,371.445 104.899,366.52 C80.972,362.885 62.695,357.551 61.929,357.325 C60.572,356.926 59.497,355.888 59.051,354.545 C58.605,353.202 58.846,351.727 59.695,350.595 C60.174,349.957 71.632,334.752 88.634,317.528 C111.667,294.194 132.804,279.223 151.458,273.029 C165.024,268.526 178.189,268.409 190.594,272.681 C194.728,273.963 202.312,276.803 210.477,282.28 C212.994,283.968 215.679,285.991 218.386,288.391 C218.8,283.534 219.077,278.509 219.115,273.581 C219.188,263.959 218.422,254.997 217.167,246.843 C214.31,248.1 211.443,249.257 208.575,250.308 C194.839,255.339 181.496,257.86 168.951,257.861 C157.846,257.861 147.367,255.887 137.779,251.932 C119.487,244.387 100.405,226.889 81.063,199.923 C66.819,180.064 57.946,162.634 57.575,161.902 C56.947,160.662 56.955,159.196 57.595,157.963 C58.236,156.73 59.431,155.881 60.806,155.682 C61.597,155.568 80.444,152.876 104.645,152.665 C137.429,152.382 162.973,156.683 180.562,165.455 C189.699,170.012 197.17,176.066 202.772,183.452 L202.946,183.619 C203.145,183.811 203.325,184.021 203.484,184.247 C203.74,184.611 209.821,193.336 215.86,208.746 C218.477,215.424 221.322,224.023 223.572,234.192 C232.73,229.492 241.162,223.591 249.304,217.334 C244.647,213.357 240.34,209.003 236.109,204.584 C222.225,189.765 215.267,174.142 211.874,163.647 C208.168,152.181 207.772,144.203 207.757,143.869 C207.754,143.804 207.752,143.739 207.752,143.674 C207.752,124.019 215.301,99.241 230.189,70.029 C241.178,48.465 251.998,32.8 252.454,32.144 L252.557,32.01 C252.607,31.931 252.579,31.966 252.639,31.903 C252.79,31.708 252.69,31.826 252.961,31.567 C253.222,31.294 253.102,31.395 253.3,31.243 C253.361,31.184 253.327,31.211 253.404,31.163 L253.54,31.058 C253.936,30.812 253.78,30.883 253.984,30.795 C254.16,30.684 254.028,30.761 254.405,30.615 C254.726,30.477 254.598,30.508 254.773,30.472 C254.934,30.409 254.808,30.454 255.165,30.39 C255.547,30.31 255.403,30.315 255.589,30.313 L255.671,30.299 C255.863,30.304 255.755,30.301 255.993,30.308 L256.357,30.303 L256.411,30.313 C256.591,30.315 256.452,30.31 256.824,30.388 C257.191,30.454 257.061,30.408 257.227,30.472 C257.397,30.508 257.272,30.477 257.586,30.612 C257.971,30.761 257.836,30.682 258.016,30.796 C258.218,30.883 258.062,30.812 258.458,31.058 L258.592,31.161 C258.672,31.212 258.637,31.183 258.701,31.245 C258.893,31.393 258.777,31.295 259.032,31.561 C259.309,31.827 259.207,31.705 259.362,31.906 C259.418,31.965 259.392,31.932 259.438,32.005 L259.545,32.144 C260,32.8 270.821,48.465 281.809,70.029 C296.697,99.241 304.245,124.019 304.245,143.674 C304.245,143.739 304.244,143.804 304.241,143.869 C304.226,144.203 303.83,152.181 300.124,163.647 C296.732,174.142 289.773,189.765 275.889,204.583 C271.757,209.105 267.241,213.239 262.695,217.334 C270.694,223.796 279.396,229.301 288.427,234.191 C290.677,224.022 293.522,215.424 296.139,208.746 C302.177,193.336 308.258,184.611 308.514,184.247 C308.674,184.02 308.854,183.81 309.054,183.618 L309.227,183.451 C314.83,176.066 322.3,170.012 331.436,165.455 C349.026,156.683 374.563,152.385 407.354,152.665 C431.555,152.876 450.402,155.568 451.193,155.682 C452.568,155.881 453.763,156.73 454.403,157.963 C455.044,159.196 455.052,160.662 454.424,161.902 C454.053,162.634 445.181,180.064 430.936,199.923 C411.594,226.889 392.512,244.387 374.219,251.932 C353.8,260.355 329.319,259.793 303.424,250.308 C300.556,249.257 297.689,248.101 294.832,246.843 C293.577,254.997 292.811,263.959 292.884,273.582 C292.921,278.512 293.199,283.537 293.612,288.392 C296.32,285.992 299.004,283.969 301.522,282.28 C309.681,276.807 317.258,273.967 321.394,272.684 C333.803,268.409 346.972,268.525 360.541,273.029 C379.195,279.223 400.332,294.194 423.365,317.528 C440.367,334.752 451.824,349.957 452.304,350.595 C453.153,351.727 453.394,353.202 452.948,354.545 C452.502,355.888 451.427,356.926 450.07,357.325 C449.303,357.551 431.027,362.885 407.1,366.52 C374.684,371.445 348.79,370.8 330.136,364.607 C305.42,356.4 295.011,338.807 290.638,324.988 C290.36,324.559 290.156,324.077 290.043,323.558 C289.936,323.066 288.707,317.345 287.409,308.964 C283.689,315.057 280.995,321.877 279.352,329.389 C276.852,343.918 277.689,359.275 278.493,373.905 C279.363,389.726 280.797,405.511 282.381,421.274 C285.048,447.82 288.374,474.31 292.094,500.728 C413.706,482.505 502.588,378.673 503.368,255.999 C503.368,119.6 392.399,8.631 256,8.631 z M338.863,278.204 C335.054,278.258 331.308,278.948 327.611,279.808 C327.329,279.961 327.025,280.084 326.702,280.174 L323.9,280.949 C320.314,282.071 313.405,284.65 306.055,289.632 C303.414,291.477 300.784,293.389 298.452,295.621 L344.665,313.627 L369.513,302.714 C371.696,301.756 374.241,302.748 375.199,304.93 C376.158,307.112 375.166,309.658 372.984,310.616 L356.037,318.059 L401.672,335.84 C403.893,336.705 404.992,339.207 404.127,341.427 C403.462,343.134 401.832,344.178 400.105,344.178 C399.584,344.178 399.054,344.082 398.539,343.882 L352.903,326.1 L360.347,343.047 C361.306,345.229 360.314,347.776 358.132,348.734 C357.567,348.982 356.978,349.099 356.399,349.099 C354.739,349.099 353.156,348.136 352.445,346.518 L341.531,321.669 L295.369,303.682 C296.164,309.314 297.105,314.926 298.224,320.503 C298.342,320.736 298.44,320.981 298.516,321.238 C303.668,338.725 315.221,350.56 332.856,356.416 C367.306,367.856 422.893,355.446 441.414,350.716 C429.4,335.849 392.272,292.658 357.821,281.22 C353.433,279.766 348.889,278.766 344.278,278.381 C343.02,278.276 341.756,278.263 340.495,278.204 L338.863,278.204 z M171.504,278.204 C165.583,278.215 159.799,279.451 154.177,281.22 C119.699,292.668 82.59,335.851 70.583,350.716 C89.099,355.445 144.69,367.856 179.143,356.416 C196.778,350.56 208.332,338.725 213.482,321.238 C213.558,320.98 213.657,320.733 213.776,320.499 C214.89,314.905 215.849,309.279 216.635,303.629 L170.338,321.668 L159.423,346.518 C158.713,348.136 157.13,349.099 155.47,349.099 C154.891,349.099 154.302,348.982 153.737,348.734 C151.555,347.776 150.563,345.229 151.522,343.047 L158.966,326.099 L113.329,343.881 C112.815,344.081 112.284,344.176 111.764,344.176 C110.037,344.176 108.406,343.133 107.742,341.426 C106.876,339.206 107.975,336.704 110.196,335.839 L155.831,318.058 L138.885,310.616 C136.703,309.658 135.711,307.112 136.669,304.93 C137.627,302.747 140.173,301.756 142.355,302.714 L167.205,313.626 L213.507,295.585 C211.087,293.303 208.4,291.334 205.669,289.447 C198.497,284.636 191.858,282.127 188.286,281.001 L188.219,280.982 L185.296,280.174 C184.974,280.084 184.671,279.961 184.389,279.808 C181.398,279.018 178.332,278.515 175.244,278.31 C174,278.227 172.751,278.239 171.504,278.204 z M406.129,161.316 C382.299,161.62 357.16,162.609 335.288,173.178 C327.25,177.188 320.733,182.481 315.92,188.91 C315.78,189.097 315.625,189.273 315.456,189.435 L315.361,189.526 C314.264,191.174 309.112,199.221 304.062,212.182 C301.518,218.855 299.27,225.669 297.65,232.631 L342.154,210.549 L350.816,184.827 C351.576,182.569 354.023,181.353 356.282,182.115 C358.541,182.876 359.755,185.323 358.994,187.582 L353.087,205.124 L396.961,183.354 C399.095,182.295 401.685,183.167 402.744,185.302 C403.804,187.436 402.932,190.026 400.797,191.085 L356.923,212.855 L374.465,218.761 C376.724,219.521 377.939,221.969 377.178,224.227 C376.571,226.03 374.891,227.167 373.089,227.167 C372.633,227.167 372.168,227.094 371.712,226.941 L345.989,218.28 L301.593,240.309 C320.046,247.815 340.854,251.781 360.565,247.242 C364.117,246.424 367.54,245.284 370.928,243.954 C404.527,230.095 434.502,180.164 443.778,163.474 C433.678,162.408 423.534,161.669 413.379,161.432 C410.962,161.376 408.545,161.355 406.129,161.316 z M105.865,161.31 C93.291,161.393 80.723,162.125 68.221,163.472 C77.503,180.161 107.499,230.107 141.07,243.954 C163.412,252.92 188.579,249.233 210.334,240.339 L165.88,218.28 L140.157,226.941 C139.701,227.094 139.236,227.167 138.78,227.167 C136.978,227.167 135.297,226.03 134.691,224.227 C133.93,221.969 135.145,219.521 137.403,218.761 L154.946,212.855 L111.071,191.085 C108.937,190.026 108.065,187.436 109.124,185.302 C110.183,183.167 112.773,182.295 114.908,183.354 L158.781,205.124 L152.874,187.582 C152.114,185.323 153.328,182.876 155.586,182.115 C157.846,181.355 160.293,182.569 161.053,184.827 L169.715,210.549 L214.366,232.704 C212.7,225.724 210.51,218.878 207.937,212.182 C202.889,199.226 197.739,191.181 196.637,189.525 L196.542,189.434 C196.374,189.272 196.219,189.097 196.079,188.91 C191.266,182.481 184.749,177.188 176.71,173.178 C154.768,162.765 129.759,161.459 105.865,161.31 z M256,42.44 C238.161,71.075 216.95,109.563 216.383,143.556 C216.434,144.359 216.961,151.436 220.186,161.3 C223.317,170.876 229.714,185.135 242.407,198.683 C245.309,201.927 248.518,204.87 251.684,207.848 L251.684,159.766 L232.493,140.575 C230.808,138.89 230.808,136.158 232.493,134.472 C234.179,132.787 236.911,132.787 238.596,134.472 L251.684,147.561 L251.684,98.583 C251.684,96.2 253.616,94.268 255.999,94.268 C258.382,94.268 260.314,96.2 260.314,98.583 L260.314,147.561 L273.403,134.472 C275.088,132.787 277.82,132.787 279.505,134.472 C281.191,136.158 281.191,138.89 279.505,140.575 L260.314,159.766 L260.314,207.912 C263.548,204.982 266.557,201.814 269.591,198.682 C282.285,185.135 288.681,170.876 291.812,161.3 C295.03,151.458 295.562,144.39 295.615,143.555 C295.217,123.64 288.259,104.388 280.126,86.442 C273.216,71.195 264.99,56.55 256,42.44 z" fill="#ffffff"/>
  </g>
</svg>
