<?xml version="1.0" encoding="UTF-8"?>
<!DOCTYPE svg PUBLIC "-//W3C//DTD SVG 1.1//EN" "http://www.w3.org/Graphics/SVG/1.1/DTD/svg11.dtd">
<svg version="1.1" xmlns="http://www.w3.org/2000/svg" xmlns:xlink="http://www.w3.org/1999/xlink" x="0" y="0" width="512" height="512" viewBox="0, 0, 512, 512">
  <g id="Layer_1">
    <path d="M256.001,-0 C290.558,-0 324.085,6.769 355.648,20.119 C386.133,33.013 413.51,51.471 437.019,74.98 C460.528,98.489 478.986,125.867 491.88,156.351 C505.231,187.915 512,221.442 512,256 C512,290.557 505.231,324.084 491.88,355.648 C478.986,386.132 460.528,413.51 437.019,437.019 C413.51,460.528 386.133,478.986 355.648,491.88 C324.085,505.231 290.558,512 256.001,512 C221.443,512 187.916,505.231 156.352,491.88 C125.867,478.986 98.49,460.528 74.981,437.019 C51.472,413.51 33.014,386.132 20.12,355.648 C6.77,324.084 0,290.557 0,256 C0,221.442 6.77,187.915 20.12,156.351 C28.716,136.348 39.525,117.147 52.995,99.995 L53.001,99.986 L53.06,99.913 C59.777,91.101 67.197,82.857 74.981,74.98 C98.49,51.471 125.867,33.013 156.352,20.119 C187.916,6.769 221.443,-0 256.001,-0 z M329.859,19.908 C330.129,27.23 329.696,34.557 328.991,41.843 C327.417,57.512 323.029,83.218 311.069,116.706 C303.494,137.555 294.489,158.17 281.65,176.372 C282.678,176.438 283.71,176.387 284.738,176.343 C291.548,175.957 297.43,173.623 302.223,169.405 C311.047,161.641 314.171,142.598 314.201,142.406 C314.577,140.054 316.787,138.448 319.139,138.822 C321.492,139.196 323.097,141.403 322.726,143.756 C322.582,144.662 319.093,166.056 307.924,175.884 C299.436,183.354 289.801,185.037 282.839,185.037 C280.389,185.063 277.953,184.798 275.539,184.411 C270.334,190.294 264.968,196.792 257.889,200.545 C257.283,200.848 256.621,201 255.959,201.001 C255.36,201.001 254.759,200.875 254.198,200.625 C253.018,200.097 252.136,199.068 251.796,197.821 L245.549,174.914 C244.816,174.976 245.245,174.949 244.26,174.97 C239.565,174.97 230.871,173.341 218.126,164.56 C198.99,151.378 196.039,132.741 195.922,131.954 C195.574,129.596 197.203,127.403 199.56,127.054 C201.912,126.706 204.102,128.327 204.457,130.677 C204.563,131.35 207.114,146.495 223.022,157.453 C228.801,161.206 236.075,165.862 243.2,166.303 L231.031,121.681 C218.794,117.255 207.964,109.558 198.503,100.747 C187.279,90.084 178.23,73.486 171.608,51.413 C169.112,42.985 167.059,34.413 165.643,25.735 C152.212,30.929 139.355,37.503 127.06,44.981 C133.506,49.216 139.311,54.339 144.669,59.869 C155.501,71.203 169.934,91.082 177.18,121.423 C181.309,138.938 181.328,159.347 175.684,176.589 L236.371,217.047 C237.651,217.9 238.38,219.371 238.284,220.906 L230.286,349.096 C230.35,350.296 230.318,349.466 230.292,351.59 C230.259,352.022 230.234,352.464 230.051,352.87 L220.817,500.868 C232.463,502.606 244.235,503.295 256.001,503.37 C267.696,503.284 279.437,502.668 291.01,500.895 L274.408,220.893 C274.317,219.364 275.043,217.902 276.315,217.051 L337.334,176.216 C335.698,159.379 336.995,141.917 342.618,125.882 C343.962,122.049 344.382,121.213 345.775,118.064 C347.586,114.189 349.465,110.342 351.523,106.591 C351.264,106.258 351.131,105.85 351,105.455 C350.774,104.664 345.488,85.891 347.559,69.327 C349.518,56.133 353.881,43.389 358.754,31.01 C349.382,26.675 339.716,22.981 329.859,19.908 z M409.529,256.913 L363.902,278.212 C365.545,281.491 367.901,284.331 370.447,286.942 C378.194,294.599 389.758,299.921 403.887,302.333 C406.237,302.734 407.816,304.964 407.415,307.313 C407.056,309.417 405.23,310.903 403.166,310.903 C402.925,310.903 402.681,310.883 402.435,310.84 C384.181,307.718 364.922,299.111 356.067,281.869 L349.436,284.965 C348.841,285.243 289.747,313.334 291.026,351.299 C291.02,351.742 291.026,352.192 290.864,352.617 L299.573,499.508 C412.76,479.813 500.296,379.394 503.219,264.309 C490.041,270.054 475.667,272.534 461.349,272.705 C460.462,272.705 459.567,272.694 458.662,272.672 C428.696,271.943 410.309,257.538 409.542,256.925 L409.529,256.913 z M103.2,256.881 L103.151,256.925 C102.382,257.538 83.996,271.943 54.031,272.672 C53.234,272.691 52.439,272.701 51.654,272.701 C36.932,272.572 22.097,269.509 8.753,263.191 C11.243,379.098 98.618,479.124 212.257,499.477 L221.647,348.964 C220.253,329.58 206.195,314.076 191.638,302.605 C191.08,302.367 190.65,301.955 190.252,301.513 C181.891,295.027 172.733,289.636 163.255,284.964 L155.915,281.532 C145.8,292.333 133.15,300.602 119.502,306.212 C108.374,310.628 96.366,311.976 85.857,311.976 C69.985,311.976 57.532,308.903 56.683,308.689 C54.372,308.105 52.972,305.758 53.556,303.448 C54.14,301.138 56.485,299.738 58.795,300.321 C65.86,301.917 73.087,302.84 80.32,303.169 C83.47,303.313 86.727,303.396 89.875,303.227 C88.935,300.606 87.695,298.103 86.397,295.643 C82.074,287.538 73.462,284.025 73.377,283.992 C71.154,283.132 70.05,280.632 70.91,278.41 C71.77,276.187 74.269,275.082 76.492,275.943 C76.964,276.126 88.126,280.547 94.012,291.582 C95.854,295.099 97.627,298.697 98.718,302.529 C104.759,301.887 110.641,300.304 116.319,298.191 C127.883,293.425 138.793,286.571 147.638,277.661 L103.2,256.881 z M488.615,171.85 C481.675,177.01 474.29,181.539 466.726,185.718 C451.746,193.919 427.536,204.799 397.273,210.062 C387.554,211.753 378.574,212.412 370.479,212.412 C357.233,212.412 346.356,210.648 338.487,208.749 C324.582,205.395 316.771,200.937 316.445,200.749 L316.317,200.666 L283.17,222.849 L289.244,325.302 C291.195,321.896 290.25,323.443 292.042,320.638 C296.26,314.294 301.374,308.581 306.974,303.43 C305.699,292.786 307.202,281.927 312.839,272.67 C314.561,270.07 313.594,271.47 315.772,268.492 C313.657,259.232 313.427,249.585 314.443,240.167 C316.4,223.393 326.471,214.826 326.899,214.47 C328.73,212.944 331.451,213.192 332.976,215.022 C334.497,216.847 334.257,219.557 332.441,221.085 C332.079,221.396 324.551,228.003 323.015,241.167 C322.302,247.56 322.28,254.051 323.112,260.435 C325.946,257.8 329.071,255.507 332.166,253.194 C336.741,249.795 341.471,246.28 347.038,240.713 C348.723,239.028 351.456,239.028 353.141,240.713 C354.826,242.398 354.826,245.13 353.141,246.816 C347.126,252.83 341.913,256.704 337.314,260.122 C330.716,265.025 325.504,268.898 320.106,277.325 C316.542,283 315.24,289.749 315.213,296.376 C324.762,289.075 334.875,282.271 345.785,277.144 L401.634,251.074 C402.228,244.943 404.232,239.043 406.971,233.553 C413.442,220.905 428.623,209.291 429.266,208.803 C431.164,207.362 433.871,207.733 435.312,209.631 C436.753,211.529 436.383,214.235 434.486,215.676 C434.344,215.784 420.221,226.603 414.654,237.484 C413.145,240.386 412.014,243.463 411.176,246.62 L498.265,205.967 C495.9,194.379 492.688,182.954 488.615,171.85 z M196.307,200.71 L196.247,200.749 C195.922,200.937 188.111,205.395 174.205,208.749 C166.337,210.648 155.458,212.412 142.213,212.412 C137.759,212.432 133.311,212.189 128.874,211.816 C135.756,222.962 140.538,235.333 142.641,248.268 C143.207,252.539 143.806,256.868 143.559,261.19 C143.468,262.772 143.339,264.385 142.885,265.911 L166.91,277.145 C175.498,281.274 183.6,286.34 191.392,291.804 C193.991,282.813 194.661,273.228 193.342,263.961 C192.934,261.099 192.746,260.393 192.214,257.978 C187.128,236.502 178.513,231.344 178.428,231.302 C176.297,230.236 175.433,227.644 176.498,225.513 C177.564,223.382 180.156,222.518 182.288,223.583 C183.524,224.201 194.542,230.362 200.612,255.99 C203.824,269.648 203.206,284.063 198.699,297.349 L198.763,297.4 C208.049,304.898 215.412,312.716 220.651,320.638 C222.337,323.277 221.498,321.896 223.155,324.79 L229.516,222.849 L196.307,200.71 z M499.918,214.72 L418.65,252.656 C430.725,260.03 444.83,263.498 458.871,264.044 C473.978,264.196 489.761,261.614 503.361,254.728 C503.213,241.346 502.28,227.909 499.918,214.72 z M12.156,214.307 C9.958,227.241 8.73,240.363 8.647,253.487 C22.516,260.781 38.199,264.195 53.821,264.044 C67.818,263.529 82.118,260.102 94.111,252.631 L12.156,214.307 z M23.867,170.539 C19.63,181.931 16.261,193.651 13.819,205.557 L134.826,262.143 C135.204,257.932 134.701,253.695 134.104,249.528 C131.783,235.499 125.981,221.925 117.6,210.423 C116.627,210.276 117.355,210.388 115.419,210.062 C85.125,204.793 60.673,193.381 45.496,184.736 C38.025,180.429 30.704,175.808 23.867,170.539 z M472.057,135.626 C461.717,142.298 449.683,145.741 437.627,147.654 C432.503,148.413 427.875,148.718 423.746,148.718 C415.797,148.598 407.558,147.774 400.2,144.531 L324.602,195.122 C329.846,197.417 335.334,199.098 340.89,200.45 C355.688,203.885 371.114,204.638 386.2,202.905 C388.89,195.888 392.468,189.243 396.283,182.781 C407.34,164.207 438.277,156.499 439.588,156.18 C441.904,155.617 444.238,157.037 444.801,159.353 C445.365,161.669 443.944,164.003 441.628,164.566 C441.206,164.67 412.874,171.782 403.699,187.196 C400.954,191.838 398.353,196.577 396.139,201.497 C419.293,197.432 441.686,189.449 462.35,178.275 C470.352,173.863 478.163,169.044 485.399,163.45 C481.635,153.859 476.974,144.667 472.057,135.626 z M40.274,135.049 C35.26,143.76 31.051,152.89 27.134,162.135 C34.318,167.83 42.044,172.807 49.991,177.364 C64.6,185.648 80.186,192.195 96.331,196.816 C96.289,193.629 95.675,190.493 94.639,187.487 C90.14,175.625 81.63,169.044 81.545,168.979 C79.649,167.535 79.283,164.827 80.728,162.932 C82.171,161.036 84.879,160.67 86.775,162.114 C87.204,162.441 97.344,170.281 102.709,184.426 C104.441,189.105 105.071,194.121 104.992,199.091 C108.926,200.072 112.909,200.837 116.898,201.56 C140.873,205.73 159.988,203.258 171.803,200.45 C177.33,199.133 182.77,197.418 187.99,195.165 L112.219,144.651 C104.894,147.729 96.827,148.646 88.946,148.718 C84.816,148.718 80.191,148.414 75.066,147.654 C62.829,145.76 50.666,141.927 40.274,135.049 z M235.489,9.488 C227.03,10.091 218.643,11.379 210.302,12.873 L258.5,189.6 C261.241,187.319 265.084,183.653 269.604,178.052 C276.257,169.738 281.874,160.628 286.791,151.195 C277.319,140.703 272.19,126.962 268.106,113.649 C265.11,103.259 263.857,92.421 263.445,81.638 C253.085,73.819 243.886,64.142 238.105,52.427 C232.326,39.419 233.283,23.265 235.489,9.488 z M90.733,72.109 C80.769,81.16 71.314,90.863 62.985,101.457 L168.157,171.571 C171.681,158.563 172.384,144.759 170.347,131.441 C169.76,127.607 169.51,126.665 168.786,123.428 C168.102,120.611 167.38,117.8 166.5,115.037 C165.246,115.073 165.889,115.061 164.572,115.071 C156.792,115.071 140.818,113.756 125.122,104.453 C111.61,96.21 99.986,84.925 90.733,72.109 z M403.095,57.25 C402.488,57.872 402.783,57.621 402.238,58.032 C402.169,58.08 395.127,62.917 385.653,73.147 C376.921,82.576 364.273,98.651 353.606,121.69 C351.896,125.439 350.575,129.339 349.435,133.293 C353.113,132.737 356.702,131.735 360.231,130.581 C368.107,127.9 379.59,122.376 389.571,111.287 C398.476,101.392 404.787,84.744 404.85,84.577 C405.687,82.347 408.174,81.216 410.405,82.053 C412.636,82.889 413.767,85.375 412.931,87.606 C412.653,88.349 405.998,105.936 395.985,117.06 C383.477,130.734 365.876,140.566 347.234,142.299 C345.33,151.642 345.068,161.223 345.557,170.714 L449.026,101.471 C435.76,84.768 420.155,70.016 403.095,57.25 z M276.951,9.521 C274.782,23.194 273.393,36.971 272.506,50.781 C271.78,63.51 271.54,76.276 272.57,88.995 L273.111,89.107 C274.171,88.611 278.047,86.151 285.225,74.75 C296.7,56.525 292.791,36.104 292.75,35.9 C292.283,33.562 293.798,31.289 296.135,30.822 C298.472,30.354 300.746,31.87 301.213,34.207 C301.407,35.179 305.818,58.241 292.528,79.348 C285.239,90.926 279.233,96.944 274.17,97.746 L273.555,97.82 C274.149,102.34 275.128,106.8 276.376,111.182 C279.794,122.273 283.95,133.439 290.99,142.792 C295.531,133.369 299.38,123.633 302.942,113.804 C310.658,92.017 316.837,69.565 319.753,46.598 C320.975,36.969 321.859,27.027 321.067,17.317 C306.642,13.435 291.858,10.659 276.951,9.521 z M57.699,108.305 C53.017,114.498 48.693,120.958 44.659,127.59 C54.085,133.93 65.203,137.341 76.331,139.117 C85.094,140.322 94.392,140.692 103.052,138.541 L57.699,108.305 z M454.311,108.318 L409.283,138.452 C418.137,140.655 427.391,140.347 436.362,139.117 C447.267,137.351 458.384,134.346 467.687,128.158 C463.589,121.311 459.092,114.706 454.311,108.318 z M201.832,14.619 C192.34,16.634 183.075,19.523 173.896,22.635 C178.164,47.387 186.135,76.573 204.447,94.49 C211.477,101.155 219.412,106.901 228.149,111.114 L201.832,14.619 z M118.98,50.151 C111.406,55.107 104.255,60.659 97.281,66.417 C105.99,78.492 116.787,89.243 129.522,97.029 C139.822,103.097 151.661,106.135 163.571,106.418 C158.044,91.527 149.565,77.724 138.714,66.13 C132.793,60.124 126.412,54.264 118.98,50.151 z M366.563,34.75 C362.209,46.324 357.826,58.089 356.123,70.398 C355.188,78.915 355.985,87.579 357.664,95.961 C364.012,85.643 371.344,75.931 379.558,67.027 C384.617,61.673 389.911,56.474 395.812,52.039 C386.518,45.529 376.648,39.922 366.563,34.75 z M256.001,8.63 C252.117,8.625 248.235,8.721 244.357,8.919 C242.49,19.921 241.149,33.434 244.245,44.238 C244.905,46.545 245.117,46.921 245.909,48.742 C249.935,57.182 256.334,64.138 263.222,70.334 C263.205,62.19 263.608,54.052 264.157,45.929 C265.078,33.56 266.375,21.208 268.29,8.951 C264.199,8.695 260.098,8.656 256.001,8.63 z" fill="#ffffff"/>
  </g>
</svg>
