<?xml version="1.0" encoding="UTF-8" standalone="no"?>
<svg
   xmlns:dc="http://purl.org/dc/elements/1.1/"
   xmlns:cc="http://creativecommons.org/ns#"
   xmlns:rdf="http://www.w3.org/1999/02/22-rdf-syntax-ns#"
   xmlns:svg="http://www.w3.org/2000/svg"
   xmlns="http://www.w3.org/2000/svg"
   id="svg2"
   version="1.1"
   viewBox="0 0 262 256"
   height="256pt"
   width="262pt">
  <metadata
     id="metadata54">
    <rdf:RDF>
      <cc:Work
         rdf:about="">
        <dc:format>image/svg+xml</dc:format>
        <dc:type
           rdf:resource="http://purl.org/dc/dcmitype/StillImage" />
        <dc:title></dc:title>
      </cc:Work>
    </rdf:RDF>
  </metadata>
  <defs
     id="defs52" />
  <g
     style="fill:#333333"
     id="#eeedcfff">
    <path
       style="fill:#333333"
       id="path48"
       d=" M 110.52 6.71 C 119.25 5.15 128.17 5.74 137.00 5.64 C 145.67 5.52 154.18 7.38 162.55 9.46 C 205.60 20.83 240.92 57.73 249.60 101.52 C 250.92 107.61 252.28 113.73 252.29 120.00 C 252.33 129.71 252.88 139.61 250.44 149.11 C 247.88 163.31 242.96 177.14 235.53 189.53 C 228.51 200.79 220.28 211.48 209.94 219.90 C 197.45 230.26 183.26 238.80 167.72 243.67 C 160.26 245.75 152.81 248.34 144.97 248.36 C 138.75 248.39 132.59 250.16 126.36 249.18 C 119.45 248.08 112.33 248.73 105.53 246.84 C 73.50 239.96 44.47 219.67 27.28 191.74 C 17.47 176.20 11.51 158.30 9.72 140.03 C 9.13 127.01 8.84 113.77 11.84 101.00 C 18.28 70.63 37.05 43.07 62.93 25.93 C 77.16 16.14 93.61 9.94 110.52 6.71 M 110.12 10.51 C 109.92 16.08 111.60 21.41 113.26 26.65 C 117.94 43.99 122.57 61.34 127.37 78.65 C 128.94 84.11 129.90 89.81 132.48 94.92 C 137.31 90.01 142.35 84.73 144.41 78.00 C 143.64 75.27 142.01 72.90 140.72 70.39 C 136.80 63.20 134.65 55.15 133.99 47.01 C 133.94 44.09 131.46 42.29 129.67 40.33 C 125.33 36.06 121.50 30.88 120.46 24.75 C 119.79 19.92 120.26 15.04 120.31 10.20 C 116.91 10.28 113.52 10.39 110.12 10.51 M 124.55 10.34 C 124.43 16.24 123.34 22.50 125.88 28.06 C 127.45 31.97 130.41 35.05 133.33 37.98 C 134.58 31.33 133.92 24.49 135.22 17.85 C 135.66 15.15 135.88 12.43 136.13 9.72 C 132.26 9.66 128.39 9.85 124.55 10.34 M 140.52 10.19 C 140.11 15.48 139.11 20.70 138.50 25.96 C 138.10 33.37 138.17 40.81 138.57 48.21 C 141.82 44.78 144.98 41.07 146.58 36.55 C 148.72 31.40 148.29 25.72 148.32 20.27 C 149.57 20.27 150.82 20.26 152.08 20.26 C 152.68 26.83 152.88 33.78 149.84 39.83 C 147.71 45.16 143.36 48.99 139.80 53.30 C 139.86 60.38 143.56 66.87 147.04 72.85 C 154.26 59.50 157.80 44.57 160.82 29.80 C 161.96 24.66 161.68 19.35 161.70 14.12 C 154.91 11.64 147.80 9.84 140.52 10.19 M 91.74 16.14 C 94.11 27.68 97.03 39.88 105.06 48.92 C 108.20 52.23 111.61 55.79 116.20 56.93 C 116.06 50.72 113.65 44.87 112.16 38.90 C 109.97 30.31 107.19 21.87 105.38 13.18 C 100.71 13.49 96.09 14.41 91.74 16.14 M 166.23 15.38 C 165.16 36.55 159.66 57.43 150.48 76.53 C 148.20 80.99 145.50 85.26 143.86 90.02 C 147.00 89.07 150.46 88.29 152.81 85.80 C 156.24 82.12 157.45 77.06 158.54 72.29 C 159.77 72.24 161.01 72.18 162.25 72.13 C 161.94 79.25 159.44 87.12 153.10 91.07 C 149.07 93.73 144.04 93.24 139.60 94.61 C 136.13 97.07 133.24 100.39 129.17 101.92 C 128.00 97.92 127.55 93.49 125.11 90.00 C 122.05 88.14 118.50 87.32 115.39 85.55 C 108.33 81.65 102.50 74.61 101.92 66.33 C 103.13 66.31 104.33 66.29 105.54 66.28 C 108.12 75.01 115.05 82.35 124.04 84.49 C 123.13 78.34 121.62 72.28 119.51 66.44 C 118.42 62.99 114.73 61.72 111.95 59.96 C 104.16 55.69 98.19 48.60 94.56 40.55 C 91.04 33.40 89.59 25.52 87.36 17.93 C 81.34 20.18 75.53 23.02 70.32 26.81 C 80.40 34.83 88.32 45.62 91.94 58.06 C 95.54 67.32 94.59 77.44 93.76 87.11 C 93.07 90.00 96.01 91.63 97.95 93.09 C 104.59 97.45 111.24 101.78 117.87 106.15 C 119.86 107.56 122.38 109.13 122.21 111.92 C 122.52 119.96 121.44 127.98 120.52 135.95 C 120.14 144.30 119.92 152.68 118.68 160.97 C 118.07 171.92 118.59 182.94 117.26 193.86 C 115.74 203.45 116.48 213.23 115.19 222.84 C 114.04 229.87 114.31 237.03 114.41 244.12 C 119.95 244.46 125.42 245.67 131.00 245.54 C 136.21 245.72 141.33 244.66 146.47 243.99 C 146.48 236.99 146.31 229.98 145.89 223.00 C 145.45 215.61 146.10 208.16 144.90 200.83 C 143.75 191.93 143.94 182.93 143.37 174.00 C 141.70 162.07 141.93 149.99 141.45 137.99 C 140.36 129.34 139.62 120.63 139.67 111.91 C 139.36 109.31 141.62 107.75 143.47 106.45 C 152.08 100.64 160.80 94.98 169.41 89.18 C 169.57 83.13 169.17 77.04 170.08 71.04 C 170.93 65.63 174.31 61.07 175.58 55.82 C 175.10 50.85 173.32 46.02 173.71 40.96 C 173.65 33.69 178.26 27.37 178.42 20.14 C 174.86 17.50 170.43 16.50 166.23 15.38 M 182.83 22.06 C 181.51 26.86 179.78 31.54 178.54 36.36 C 177.38 40.97 177.93 45.75 178.54 50.39 C 182.23 46.11 185.35 41.36 189.38 37.38 C 191.48 35.17 193.87 33.21 195.65 30.72 C 195.61 30.41 195.53 29.79 195.49 29.48 C 191.96 26.01 187.23 24.15 182.83 22.06 M 64.48 30.38 C 61.09 31.92 58.43 34.61 55.63 36.99 C 62.60 47.18 73.62 55.91 86.48 56.00 C 83.57 47.09 77.98 39.15 70.96 33.00 C 69.11 31.67 66.97 29.50 64.48 30.38 M 195.26 37.29 C 186.48 46.00 178.99 56.55 175.66 68.58 C 182.29 67.36 188.62 64.20 193.33 59.34 C 197.92 54.65 199.08 47.56 204.24 43.31 C 205.58 49.68 201.75 55.35 198.16 60.21 C 192.30 67.30 183.61 72.09 174.41 72.92 C 173.60 77.27 173.46 81.71 173.70 86.12 C 184.94 78.97 195.81 71.26 206.97 63.97 C 212.11 60.57 217.37 57.30 222.06 53.27 C 217.15 47.75 211.96 42.49 206.60 37.42 C 204.89 35.91 203.20 34.21 200.98 33.52 C 198.60 33.74 196.97 35.83 195.26 37.29 M 39.55 53.31 C 45.53 58.57 52.53 62.46 59.07 66.95 C 66.21 71.84 73.49 76.52 80.59 81.45 C 83.42 83.42 86.44 85.10 89.58 86.53 C 90.56 77.90 91.49 68.70 87.95 60.50 C 81.96 60.20 75.91 59.15 70.52 56.39 C 63.11 52.66 57.58 46.31 51.97 40.38 C 47.32 44.16 43.24 48.59 39.55 53.31 M 31.05 67.01 C 39.20 70.56 48.13 73.66 57.10 71.43 C 50.78 66.11 43.67 61.86 36.77 57.36 C 34.16 60.11 31.98 63.29 31.05 67.01 M 204.17 71.43 C 213.32 73.54 222.51 70.69 230.85 67.05 C 229.36 63.57 227.33 60.37 225.00 57.40 C 217.83 61.73 210.75 66.24 204.17 71.43 M 21.97 82.73 C 31.80 89.80 42.69 96.18 54.75 98.32 C 54.20 91.87 47.87 87.99 47.44 81.55 C 55.01 84.44 58.90 92.54 58.94 100.28 C 62.55 101.17 66.23 101.82 69.96 101.83 C 79.11 101.91 88.60 102.62 97.25 98.99 C 93.90 94.76 89.11 92.21 84.68 89.31 C 77.36 84.31 69.91 79.51 62.67 74.40 C 51.34 78.40 38.71 75.98 28.47 70.14 C 25.75 74.03 23.62 78.29 21.97 82.73 M 198.99 74.41 C 192.41 79.08 185.63 83.43 178.98 87.98 C 174.00 91.41 168.36 94.14 164.56 99.00 C 173.33 102.15 182.73 102.46 191.93 101.84 C 194.95 96.72 197.20 90.80 202.10 87.11 C 207.49 83.15 213.83 79.95 220.68 80.02 C 219.98 81.46 219.86 83.57 218.02 84.02 C 213.66 85.86 208.98 87.18 205.20 90.15 C 201.61 92.71 199.56 96.74 197.62 100.57 C 202.96 100.52 208.06 98.90 213.03 97.10 C 222.64 94.05 231.47 89.08 239.81 83.49 C 237.90 79.00 235.83 74.56 233.31 70.37 C 222.91 75.87 210.34 78.43 198.99 74.41 M 15.94 103.46 C 31.77 110.84 47.70 118.03 63.42 125.65 C 66.39 127.04 69.48 128.13 72.64 129.02 C 72.86 120.98 70.26 112.99 65.43 106.58 C 64.21 105.38 62.39 105.16 60.81 104.70 C 46.32 102.13 32.87 95.53 20.72 87.39 C 18.31 92.46 16.40 97.83 15.94 103.46 M 198.96 105.46 C 190.37 106.49 181.63 106.68 173.03 105.61 C 168.21 105.08 163.94 102.33 159.15 101.77 C 155.23 103.37 151.85 106.00 148.33 108.30 C 146.40 109.74 143.72 111.14 144.00 113.97 C 143.99 121.57 144.34 129.20 145.42 136.73 C 145.95 144.02 145.64 151.35 146.56 158.62 C 148.55 156.61 150.63 154.66 152.40 152.44 C 154.16 150.42 154.01 147.57 154.53 145.09 C 155.04 140.86 157.05 137.03 157.98 132.92 C 158.75 127.79 157.59 122.54 158.65 117.45 C 159.43 114.59 160.69 111.83 162.50 109.48 C 163.72 107.66 166.21 107.98 168.09 107.45 C 166.40 111.23 164.14 114.74 162.75 118.65 C 161.72 122.00 162.29 125.55 162.56 128.97 C 167.76 125.93 171.63 119.61 178.33 120.09 C 174.66 127.40 166.09 130.02 161.71 136.71 C 160.05 139.12 159.78 142.12 159.28 144.92 C 165.11 142.46 170.21 138.61 175.98 136.00 C 182.93 132.47 190.21 129.62 197.17 126.10 C 199.69 125.07 200.10 122.14 201.08 119.92 C 203.63 112.87 208.78 106.32 216.03 103.79 C 215.74 105.91 215.37 108.14 213.62 109.59 C 209.98 113.09 206.32 116.89 205.18 122.00 C 218.97 116.33 232.36 109.67 245.86 103.33 C 244.62 98.14 243.29 92.97 241.41 87.97 C 228.29 95.96 214.14 102.60 198.96 105.46 M 89.83 105.45 C 83.63 106.45 77.34 106.15 71.10 106.51 C 73.38 111.64 75.69 116.82 76.60 122.40 C 77.46 125.62 77.35 129.15 78.77 132.19 C 81.07 134.13 83.93 135.19 86.61 136.48 C 91.21 138.51 95.49 141.15 99.63 143.98 C 101.43 139.58 102.36 134.69 100.83 130.05 C 99.60 123.40 95.43 117.95 92.88 111.82 C 98.35 111.68 100.89 116.99 102.60 121.33 C 104.30 126.04 105.94 130.94 105.75 136.02 C 105.72 139.71 104.58 143.26 103.75 146.82 C 107.64 150.62 111.31 154.65 115.37 158.28 C 115.83 148.80 115.72 139.25 117.25 129.85 C 117.75 124.05 118.14 118.17 117.55 112.38 C 115.80 109.51 112.58 107.95 109.97 105.97 C 107.43 104.43 105.03 102.21 102.01 101.82 C 97.84 102.63 94.04 104.76 89.83 105.45 M 14.60 107.86 C 14.06 113.80 12.97 119.82 13.83 125.78 C 15.95 127.82 18.85 128.69 21.63 129.40 C 31.50 131.46 41.95 131.02 51.42 127.43 C 51.52 126.81 51.73 125.58 51.84 124.96 C 42.92 120.46 33.68 116.65 24.73 112.21 C 21.45 110.56 18.06 109.11 14.60 107.86 M 210.07 124.89 C 210.15 125.55 210.33 126.88 210.41 127.55 C 222.38 131.88 235.68 131.48 247.66 127.42 C 248.56 120.94 248.13 114.36 246.85 107.96 C 234.46 113.31 222.29 119.17 210.07 124.89 M 48.10 132.90 C 42.00 134.87 35.52 136.38 29.09 135.36 C 23.88 134.42 18.79 132.93 13.64 131.71 C 13.47 148.80 18.47 165.68 26.11 180.85 C 37.49 203.11 56.10 221.53 78.50 232.63 C 88.37 237.44 98.74 241.74 109.77 242.81 C 110.33 237.69 110.24 232.52 110.93 227.41 C 111.96 220.30 111.49 213.09 112.03 205.94 C 112.25 199.26 113.87 192.71 113.75 186.01 C 113.66 179.28 115.32 172.32 113.25 165.75 C 109.39 155.97 100.46 149.56 91.94 144.05 C 89.25 142.54 86.54 140.39 83.33 140.36 C 80.19 142.09 77.67 144.71 74.71 146.69 C 68.62 150.80 61.55 154.03 54.05 153.79 C 47.30 153.56 39.99 154.90 33.85 151.37 C 34.44 150.80 35.63 149.67 36.22 149.10 C 41.53 149.58 46.86 149.76 52.19 149.49 C 49.47 145.18 45.79 141.61 42.86 137.45 C 45.23 137.70 48.08 137.25 49.89 139.16 C 52.80 141.99 54.69 145.64 56.84 149.03 C 65.23 148.19 73.02 143.79 78.63 137.58 C 72.04 134.61 65.78 130.80 58.98 128.36 C 55.07 129.02 51.85 131.69 48.10 132.90 M 181.75 138.72 C 186.90 144.83 194.33 148.10 201.87 150.17 C 201.78 151.43 201.69 152.70 201.60 153.97 C 195.57 153.04 189.53 151.11 184.71 147.25 C 182.11 145.19 180.17 142.43 177.61 140.33 C 175.75 140.59 174.08 141.53 172.46 142.42 C 165.30 146.66 158.42 151.62 153.04 158.03 C 150.03 161.67 147.79 166.14 147.64 170.94 C 147.33 177.97 148.25 184.98 148.31 192.01 C 148.22 200.04 149.96 207.93 149.85 215.96 C 150.67 224.93 149.48 234.09 151.82 242.89 C 164.87 241.24 177.15 235.93 188.56 229.58 C 209.37 217.71 226.43 199.34 236.87 177.79 C 242.11 167.07 245.03 155.43 247.32 143.78 C 247.96 139.87 247.80 135.90 247.74 131.96 C 242.82 133.16 237.90 134.43 232.92 135.36 C 226.71 136.38 220.48 134.90 214.53 133.25 C 210.47 132.12 207.05 129.43 203.00 128.31 C 195.62 131.01 188.51 134.68 181.75 138.72 Z"
       opacity="1.00"
       fill="#fff" />
  </g>
</svg>
